<svg xmlns="http://www.w3.org/2000/svg" viewBox="0 0 27.999 21"><defs><style>.a{fill:#4fe4ec;}</style></defs><path class="a" d="M20,21c-3.723,0-7.2-1.694-10.331-5.036a23.97,23.97,0,0,1-2.626-3.373,16.993,16.993,0,0,1-.92-1.57,1.169,1.169,0,0,1,0-1.043,17.584,17.584,0,0,1,.92-1.57A23.97,23.97,0,0,1,9.67,5.036C12.8,1.694,16.278,0,20,0s7.2,1.694,10.33,5.035a23.97,23.97,0,0,1,2.626,3.373,17.584,17.584,0,0,1,.92,1.57,1.169,1.169,0,0,1,0,1.043,16.994,16.994,0,0,1-.92,1.57,23.97,23.97,0,0,1-2.626,3.373C27.2,19.306,23.723,21,20,21ZM20,2.334c-3.052,0-5.955,1.446-8.628,4.3A21.56,21.56,0,0,0,9,9.675c-.18.279-.35.556-.506.825.147.254.317.532.506.825a21.559,21.559,0,0,0,2.369,3.043c2.674,2.852,5.577,4.3,8.628,4.3s5.953-1.446,8.627-4.3A21.458,21.458,0,0,0,31,11.326c.185-.287.355-.565.506-.825-.153-.263-.323-.541-.506-.825a21.458,21.458,0,0,0-2.369-3.044C25.955,3.78,23.052,2.334,20,2.334Zm0,12.833A4.667,4.667,0,1,1,24.667,10.5,4.672,4.672,0,0,1,20,15.167Zm0-7A2.333,2.333,0,1,0,22.333,10.5,2.336,2.336,0,0,0,20,8.167Z" transform="translate(-6.001)"/></svg>