<svg xmlns="http://www.w3.org/2000/svg" viewBox="0 0 25 25"><defs><style>.a{fill:#a1a6bc;}.b,.e{fill:none;}.b{stroke:#8d93ae;stroke-miterlimit:10;}.c{fill:#878daa;}.d{stroke:none;}</style></defs><rect class="a" width="16" height="1" transform="translate(6.99 17.803) rotate(-45)"/><g class="b"><rect class="d" width="25" height="25" rx="12.5"/><rect class="e" x="0.5" y="0.5" width="24" height="24" rx="12"/></g><path class="c" d="M6.479,3.988H3.989v2.49a.49.49,0,1,1-.977,0V3.988H.521a.49.49,0,1,1,0-.978h2.49V.521a.49.49,0,1,1,.977,0v2.49h2.49a.49.49,0,1,1,0,.978Z" transform="translate(5 5)"/><path class="c" d="M3.419.857H.447A.438.438,0,0,1,0,.428.438.438,0,0,1,.447,0H5.553A.438.438,0,0,1,6,.428a.438.438,0,0,1-.447.429Z" transform="translate(14 16)"/></svg>