<svg xmlns="http://www.w3.org/2000/svg" viewBox="0 0 15.5 16.333"><defs><style>.a{fill:#fff;stroke:#fff;stroke-miterlimit:10;stroke-width:0.5px;}</style></defs><g transform="translate(0.25 0.25)"><path class="a" d="M.118,8.674l2.957,2.886a.366.366,0,0,0,.515,0L6.548,8.674a.4.4,0,0,0,.016-.551.366.366,0,0,0-.531-.017L3.709,10.374V.39a.376.376,0,1,0-.752,0v9.984L.633,8.106A.366.366,0,0,0,.1,8.123.4.4,0,0,0,.118,8.674Z" transform="translate(4.167)"/><path class="a" d="M13.073,0H11.119a.391.391,0,0,0-.385.4.391.391,0,0,0,.385.4h1.954a1.175,1.175,0,0,1,1.156,1.192v9.362a1.176,1.176,0,0,1-1.156,1.192H1.927A1.176,1.176,0,0,1,.771,11.347V1.986A1.175,1.175,0,0,1,1.927.794H3.881A.391.391,0,0,0,4.266.4.391.391,0,0,0,3.881,0H1.927A1.959,1.959,0,0,0,0,1.986v9.362a1.959,1.959,0,0,0,1.927,1.986H13.073A1.959,1.959,0,0,0,15,11.347V1.986A1.959,1.959,0,0,0,13.073,0Z" transform="translate(0 2.5)"/></g></svg>