<svg xmlns="http://www.w3.org/2000/svg" viewBox="0 0 91.264 66.268"><defs><style>.a{fill:#fff;stroke:#878daa;stroke-miterlimit:10;}</style></defs><g transform="translate(-294 -426.5)"><path class="a" d="M7.4,4.449a.9.9,0,0,0,.936-.889V.894A.918.918,0,0,0,7.4,0H.936A.918.918,0,0,0,0,.894V3.561a.9.9,0,0,0,.936.889Z" transform="translate(311.164 428.389)"/><path class="a" d="M18.04,36.106A18.054,18.054,0,0,1,5.281,5.292,18.058,18.058,0,0,1,36.106,18.065,18.05,18.05,0,0,1,18.04,36.106Zm0-32.089A14.048,14.048,0,1,0,32.089,18.065,14.064,14.064,0,0,0,18.04,4.017Z" transform="translate(323.662 442.275)"/><path class="a" d="M82.049,65.268H8.215a10.372,10.372,0,0,1-4.108-1.021,7.179,7.179,0,0,1-2.824-2.425A8.327,8.327,0,0,1,0,57.1V16.31A8.282,8.282,0,0,1,1.284,11.6,7.173,7.173,0,0,1,4.107,9.185,10.4,10.4,0,0,1,8.215,8.167H27.9L32.25.939A2.192,2.192,0,0,1,33.912,0H60.454A2.116,2.116,0,0,1,62.1.939l4.369,7.229H82.049a10.4,10.4,0,0,1,4.108,1.018A7.173,7.173,0,0,1,88.98,11.6a8.282,8.282,0,0,1,1.284,4.707V57.1a8.327,8.327,0,0,1-1.284,4.722,7.179,7.179,0,0,1-2.824,2.425A10.372,10.372,0,0,1,82.049,65.268ZM8.251,12.227c-.041,0-4.143.048-4.143,4.166V57.024c0,4.113,4.1,4.161,4.143,4.161H82.007c.041,0,4.149-.048,4.149-4.161V16.392c0-4.118-4.108-4.166-4.149-4.166H63.921l-5.19-8.143h-23.5l-4.569,8.143Z" transform="translate(294.5 427)"/></g></svg>