<svg version="1" xmlns="http://www.w3.org/2000/svg" width="293.826" height="79.393" viewBox="0 0 293.826 79.393"><path d="M33.42 17.06c7.657-2.59 8.24-12.18.692-12.18-2.08 0-4.56 1.458-6.272 4.448l-10.212 17.65c-.474.84-.948 1.533-1.458 2.152-2.626-3.61-1.86-9.007 1.823-11.378L16.46 15.82c-7.95 5.068-5.615 19.692 7.66 19.692 11.342 0 16.593-13.602 9.3-18.452zm-9.373 15.535c-2.26 0-4.048-.51-5.47-1.313.657-.766 1.313-1.714 1.896-2.7l6.382-11.05 1.02.11c8.9 1.86 5.362 14.953-3.828 14.953zM28.13 15.31l3.064-5.252c2.77-4.777 6.31-1.97 4.413 1.604-1.458 2.735-3.61 3.574-7.476 3.647z"/><path d="M65.5 29.32c-.63 2.25.572 4.077 3.145 4.077 1.532 0 3.428-.985 5.25-2.48.184 1.46 1.35 2.48 3.283 2.48 2.02 0 4.235-1.395 6.394-3.358-.42 2.046.54 3.356 2.41 3.356 2.08 0 4.413-1.896 6.236-3.647-.365 2.04.84 3.646 3.246 3.646 3.136 0 6.747-3.355 9.883-7.002-.025-.05-.07-.102-.1-.152 2.096-2.437 3.945-5.026 5.267-6.777-1.496 3.94-.693 11.014-4.304 11.014-1.276 0-1.787-1.387-1.787-1.387l-2.37 1.24s.692 3.063 4.156 3.063c.363 0 .69-.037 1.056-.073.037 0 .073-.036.11-.036 2.785-.368 5.55-2.064 7.942-4.224.057 2.495 1.994 4.333 5.144 4.333 4.303 0 8.57-3.355 11.707-7.002-.255-.51-.91-1.094-1.42-1.313l-.257.293c-2.735 3.172-6.236 5.69-8.898 5.69-2.334 0-3.72-1.46-1.97-4.523l.366-.656c2.444 1.02 7.04.547 9.884-4.376l.547-.948c2.043-3.5.074-6.127-3.026-6.127-3.063 0-5.507 1.605-7.11 4.376l-3.684 6.316c-.034-.012-.07-.037-.104-.046l-.255.293a23.674 23.674 0 0 1-4.556 4.12c1.203-3.61.948-9.152 3.282-14.003l-2.844-1.532c-1.567 2.152-4.995 7.112-8.423 11.123.03.048.073.093.11.14l-.136.154c-2.735 3.172-5.397 5.69-7.075 5.69-.84 0-1.313-.584-.44-2.08l8.096-14.187h-3.793l-6.747 11.78c-2.88 2.625-5.105 4.083-5.835 3.755-.947-.4 0-1.822.475-2.624l7.403-12.91h-3.793L85.93 25.244c-.1-.06-.197-.123-.29-.162l-.254.292c-2.735 3.172-5.397 5.69-7.075 5.69-.837 0-1.31-.584-.437-2.08L84 18.26h-2.153c.146-1.605-1.495-3.83-3.975-3.83-2.042 0-4.887 1.605-6.49 4.376l-3.847 6.637a2.813 2.813 0 0 0-.577-.365l-.255.292c-2.735 3.172-6.236 5.69-8.898 5.69-2.334 0-3.72-1.46-1.97-4.523l3.902-6.783c2.188-3.756 6.054-3.136 3.792.802l-.55.948h3.1l.548-.948c2.04-3.5.072-6.127-3.028-6.127-3.063 0-5.507 1.603-7.11 4.374l-3.77 6.467a2.417 2.417 0 0 0-.348-.194l-.255.292c-2.736 3.17-6.237 5.688-8.9 5.688-2.333 0-3.72-1.46-1.97-4.522l.366-.657c2.443 1.02 7.04.546 9.883-4.377l.546-.948c2.042-3.5.073-6.127-3.027-6.127-3.064 0-5.508 1.605-7.112 4.376l-3.975 6.82c-2.37 4.048-.328 7.768 4.157 7.768 3.34 0 6.657-2.023 9.442-4.634-.098 2.647 1.865 4.635 5.14 4.635 3.098.006 6.175-1.735 8.827-4.07zm58.028-9.562c2.188-3.756 6.054-3.136 3.792.802l-.547.948c-1.823 3.1-4.267 3.027-5.69 2.516l2.445-4.266zm-54.19 9.227l5.287-9.227c2.042-3.538 6.09-2.626 4.23.802L75.9 25.74c-2.296 3.61-4.558 5.323-6.125 5.323-.84 0-1.313-.583-.438-2.078zm-24.185-9.227c2.188-3.756 6.054-3.136 3.792.802l-.547.948c-1.823 3.1-4.267 3.027-5.69 2.516l2.445-4.266zm128.584 13.64c4.304 0 8.57-3.356 11.706-7.003-.255-.51-.91-1.094-1.422-1.313l-.253.292c-2.735 3.172-6.236 5.69-8.898 5.69-2.335 0-3.72-1.46-1.97-4.523l.364-.655c2.443 1.02 7.038.547 9.883-4.376l.547-.95c2.042-3.5.073-6.126-3.027-6.126-3.062 0-5.506 1.605-7.11 4.376l-3.694 6.335c-.037-.02-.077-.048-.113-.064l-.257.294c-2.734 3.172-5.396 5.69-7.074 5.69-.84 0-1.315-.584-.44-2.08l5.47-9.59c1.642-2.882.073-4.96-2.04-4.96-1.644 0-3.394.91-5.29 2.88l6.054-10.54h-3.793l-10.696 18.56a2.506 2.506 0 0 0-.434-.252l-.255.293c-2.735 3.172-5.397 5.69-7.075 5.69-.838 0-1.312-.584-.438-2.08l8.133-14.187h3.1l1.095-1.823h-3.137l3.574-6.2h-3.793l-3.574 6.2h-3.428l-1.094 1.823h3.464L140.2 28c-1.605 2.808-.475 5.397 2.588 5.397 1.885 0 3.94-1.216 5.962-2.975l-1.504 2.61h3.83l5.762-10.03c5.835-7.33 8.424-6.38 6.783-3.573L158.7 28c-1.604 2.808-.475 5.397 2.59 5.397 2.304 0 4.863-1.813 7.303-4.22.113 2.438 2.043 4.22 5.147 4.22zm3.063-13.64c2.188-3.756 6.054-3.136 3.793.802l-.547.948c-1.824 3.1-4.268 3.027-5.69 2.516l2.444-4.266zm111.956 5.325l-.256.292c-2.734 3.172-5.397 5.69-7.074 5.69-.84 0-1.313-.584-.438-2.08l12.837-22.21h-3.793l-5.58 9.63c-.656-1.06-1.896-1.97-3.464-1.97-2.043 0-4.888 1.604-6.492 4.375l-3.71 6.406c-.08-.047-.163-.1-.238-.133l-.256.292c-2.734 3.172-5.396 5.69-7.074 5.69-.84 0-1.313-.584-.438-2.08l5.47-9.59c1.642-2.882.073-4.96-2.042-4.96-1.642 0-3.355.874-5.252 2.844l1.423-2.48h-3.795l-6.062 10.485a2.52 2.52 0 0 0-.36-.203l-.256.292c-2.734 3.172-5.397 5.69-7.074 5.69-.84 0-1.313-.584-.438-2.08l6.126-10.722h-2.15c.146-1.605-1.495-3.83-3.975-3.83-2.043 0-4.888 1.605-6.492 4.376l-3.667 6.328-.206.235c-2.733 3.173-5.396 5.69-7.073 5.69-.84 0-1.313-.583-.438-2.08l3.79-6.636c1.313-2.298.693-3.647-.547-5.142l-2.115-2.553c-.548-.693-.548-1.458.218-2.188l-1.97-2.15c-2.15 1.932-2.333 4.083-.984 5.834l.33.438c-1.68 2.37-3.94 5.58-6.42 8.497.074.11.163.216.258.323-3.125 3.592-5.78 5.918-8.763 7.19l4.812-8.24h-3.793l-.4.656c-2.007 3.536-4.305 6.053-7.26 6.053-2.588 0-3.06-2.59-.8-6.455l1.057-1.86c.692.108 1.386.182 2.15.182 13.494 0 20.022-18.052 8.134-18.052-2.078 0-4.558 1.46-6.27 4.45l-5.91 10.174c-2.224-1.167-3.39-3.282-3.39-5.397 0-1.75.802-3.5 2.442-4.777l-1.24-2.225c-2.698 1.933-3.9 4.522-3.9 7.075 0 3.027 1.713 5.944 4.776 7.55l-1.13 1.968c-2.663 4.595-2.19 9.7 3.172 9.7 1.604 0 2.954-.473 4.12-1.203l-.984 1.714c-5.142 1.567-8.314 3.645-8.314 6.49 0 3.647 5.58 4.413 8.314-.255l2.918-4.996c3.938-1.24 7.804-3.94 11.962-8.753a2.242 2.242 0 0 0-.236-.357c1.684-1.98 3.114-3.888 5.97-7.775l.51.62c.475.62.657 1.387.22 2.153L223.238 28c-1.606 2.808-.476 5.397 2.59 5.397 1.905 0 3.987-1.244 6.03-3.036-.043 1.747 1.15 3.038 3.31 3.038 1.533 0 3.43-.985 5.253-2.48.184 1.46 1.35 2.48 3.283 2.48 1.816 0 3.792-1.13 5.742-2.785l-1.398 2.42h3.83l5.797-10.102c5.8-7.256 8.388-6.31 6.747-3.5L259.5 28c-1.605 2.808-.476 5.397 2.588 5.397 2.016 0 4.226-1.388 6.38-3.346-.2 1.903 1.007 3.348 3.295 3.348 1.53 0 3.428-.985 5.25-2.48.184 1.46 1.35 2.48 3.283 2.48 3.137 0 6.747-3.355 9.883-7.002-.258-.51-.914-1.094-1.425-1.312zm-77.963-14.15c1.13-1.933 2.37-2.77 3.43-2.77 6.017 0 1.786 12.252-8.134 12.252h-.768l5.47-9.482zm-8.06 28.59c-.8 1.423-2.077 1.205-2.077.184 0-.985.875-2.115 3.793-3.246l-1.717 3.065zm39.694-13.784c-2.298 3.61-4.56 5.322-6.127 5.322-.84 0-1.312-.583-.438-2.08l5.288-9.226c2.042-3.538 6.09-2.626 4.23.802l-2.953 5.18zm36.7-.22c-2.297 3.755-4.63 5.542-6.235 5.542-.84 0-1.312-.583-.438-2.08l5.288-9.226c2.042-3.538 6.09-2.626 4.23.802h.036l-2.88 4.96zM162.05 61.08l-.254.293c-2.735 3.172-5.397 5.688-7.075 5.688-.837 0-1.31-.583-.436-2.08l5.47-9.59c1.642-2.88.073-4.96-2.042-4.96-1.64 0-3.353.875-5.25 2.845l1.422-2.48h-3.793l-6.112 10.575a2.71 2.71 0 0 0-.484-.29l-.255.292c-1.715 1.86-3.83 2.77-5.727 2.808l3.574-6.163c2.297-3.976.182-7.73-3.392-7.73-2.917 0-5.178 1.166-7.367 4.96l-1.86 3.244-1.626 2.782a2.418 2.418 0 0 0-.342-.193l-.255.293c-3.136 3.61-5.798 5.943-8.79 7.22L127.85 50.8h-3.792l-6.71 11.67c-2.917 2.698-5.178 4.193-5.908 3.865-.948-.4 0-1.823.474-2.625l7.403-12.91h-3.793l-6.05 10.47a2.46 2.46 0 0 0-.332-.187l-.255.293c-2.735 3.172-5.397 5.688-7.075 5.688-.838 0-1.312-.583-.438-2.08l5.47-9.59c1.64-2.88.073-4.96-2.042-4.96-1.64 0-3.355.875-5.25 2.845l1.42-2.48H97.18l-6.062 10.485a2.52 2.52 0 0 0-.36-.203l-.255.293c-2.734 3.172-5.396 5.688-7.074 5.688-.84 0-1.313-.583-.44-2.08l6.128-10.72h-2.152c.146-1.605-1.495-3.83-3.975-3.83-2.04 0-4.886 1.605-6.49 4.377l-3.92 6.763c-.257-.235-.556-.417-.83-.49l-.254.293c-2.735 3.172-6.09 5.688-9.847 5.688-2.59 0-4.158-2.59-1.897-6.455l1.058-1.86c.694.107 1.387.182 2.15.182 4.05 0 8.645-2.08 11.636-7.295 1.057-1.86 1.53-3.61 1.53-5.105 0-3.428-2.224-5.652-5.03-5.652-2.08 0-4.56 1.46-6.274 4.45l-5.91 10.175c-2.224-1.167-3.39-3.282-3.39-5.397 0-1.75.8-3.5 2.442-4.777l-1.24-2.223c-2.7 1.934-3.902 4.52-3.902 7.075 0 3.027 1.714 5.945 4.777 7.55l-1.13 1.97c-2.663 4.595-1.095 9.7 4.266 9.7 4.24 0 7.353-1.89 9.968-4.372-.826 2.383.374 4.372 3.06 4.372 1.53 0 3.427-.985 5.25-2.48.183 1.46 1.35 2.48 3.282 2.48 1.816 0 3.792-1.13 5.742-2.784l-1.4 2.42h3.83l5.8-10.102c5.797-7.258 8.387-6.31 6.746-3.502L98.09 64c-1.604 2.81-.474 5.397 2.59 5.397 2.04 0 4.28-1.425 6.463-3.423-.455 2.086.51 3.423 2.398 3.423 1.826 0 3.904-1.532 5.618-3.063l-2.08 3.574c-5.14 1.53-8.35 3.646-8.35 6.49 0 3.648 5.58 4.414 8.314-.254l2.918-4.996c3.17-.998 6.297-2.965 9.563-6.196-.523 5.297 6.534 6.505 10.787 1.126h.84c1.384 0 3.26-.523 4.95-1.455l-2.548 4.41h3.83l5.797-10.102c5.797-7.256 8.387-6.31 6.746-3.5L151 64c-1.603 2.81-.474 5.397 2.59 5.397 3.137 0 6.747-3.354 9.884-7.002-.256-.51-.912-1.094-1.423-1.313zm-94.386-14.15c1.13-1.932 2.37-2.77 3.428-2.77 1.422 0 2.08.948 2.08 2.334 0 3.538-4.304 9.92-10.212 9.92h-.766l5.47-9.483zM81.02 61.74c-2.298 3.61-4.56 5.323-6.128 5.323-.838 0-1.312-.583-.438-2.08l5.288-9.226c2.042-3.537 6.09-2.625 4.23.803l-2.953 5.18zm28.85 13.783c-.803 1.423-2.08 1.204-2.08.184 0-.985.913-2.115 3.83-3.246l-1.75 3.064zm25.527-14.185h-.183c-1.24 0-2.225 1.02-2.225 2.262 0 .474.144.91.363 1.275l-.036.073c-1.787 3.063-6.127 2.48-3.866-1.46l2.88-4.995 1.825-3.1c2.663-4.522 6.31-2.735 4.012 1.204l-2.77 4.74zm114.56 1.058c-.22-.583-.874-1.167-1.42-1.313l-.257.293a23.61 23.61 0 0 1-4.56 4.12c1.205-3.61.95-9.153 3.283-14.004l-2.845-1.532c-1.567 2.152-4.996 7.112-8.424 11.123.006.01.015.018.02.026-.014-.01-.03-.02-.045-.028l-.257.293c-2.735 3.172-5.397 5.688-7.075 5.688-.84 0-1.642-.84-1.642-2.553v-1.567c2.662.328 5.47-1.423 7.257-4.522l1.02-1.75c3.538-6.052-2.224-8.06-6.09-4.52l5.397-9.372h-3.793L219.71 61.544a2.972 2.972 0 0 0-.695-.46l-.255.294c-2.735 3.172-6.236 5.688-8.898 5.688-2.334 0-3.72-1.46-1.97-4.522l3.902-6.783c2.188-3.755 6.054-3.135 3.793.804l-.547.948h3.1l.547-.947c2.042-3.5.073-6.127-3.027-6.127-3.062 0-5.507 1.605-7.11 4.377l-3.733 6.404c-.08-.048-.16-.1-.235-.134l-.256.293c-2.735 3.17-5.397 5.687-7.075 5.687-.84 0-1.312-.583-.437-2.08l8.096-14.185h-3.794l-6.746 11.78c-2.882 2.624-5.106 4.083-5.835 3.755-.95-.4 0-1.823.473-2.625l7.403-12.91h-3.792l-7.365 12.744c-.82.746-1.66 1.413-2.45 1.952 1.203-3.61.948-9.153 3.282-14.004l-2.845-1.532c-1.568 2.152-10.32 13.75-13.75 17.76.33.475.877.95 1.424 1.314 2.15-2.48 9.37-11.78 10.72-13.566-1.494 3.938-.692 11.014-4.303 11.014-1.275 0-1.786-1.387-1.786-1.387l-2.37 1.24s.693 3.063 4.157 3.063c.366 0 .694-.036 1.06-.073.035 0 .072-.036.11-.036 1.924-.255 3.84-1.142 5.63-2.38-.014 1.543.92 2.49 2.507 2.49 2.078 0 4.412-1.897 6.235-3.648-.364 2.044.84 3.648 3.246 3.648 2.355 0 4.98-1.893 7.467-4.38.035 2.52 1.976 4.38 5.146 4.38 3.08 0 6.137-1.72 8.777-4.032l-2.114 3.668h3.83l4.34-7.55v3.027c0 3.246.62 4.888 3.682 4.888 3.137 0 6.747-3.353 9.884-7-.007-.01-.018-.023-.023-.035.016.012.03.023.047.034 2.15-2.48 4.048-5.143 5.396-6.93-1.495 3.94-.692 11.014-4.303 11.014-1.276 0-1.787-1.386-1.787-1.386l-2.37 1.24s.692 3.063 4.157 3.063c.364 0 .692-.035 1.058-.072.037 0 .073-.036.11-.036 3.865-.51 7.694-3.574 10.538-6.892zm-25.187-2.99l1.094-1.897c4.377-6.093 7.367-4.415 6.018-2.117l-1.823 3.136c-1.134 1.97-4.45 3.354-5.29.874zm25.04 5.578c-1.238 0-2.187.984-2.187 2.225s.948 2.186 2.188 2.186c1.24 0 2.227-.948 2.227-2.188s-.985-2.226-2.225-2.226zm.184-1.494h3.83l11.887-20.715h-3.79zM5.75 6.9a2.444 2.444 0 0 1-.676 1.675 2.603 2.603 0 0 1-.83.575c-.326.147-.693.22-1.1.22-.45 0-.884-.084-1.3-.253A2.947 2.947 0 0 1 .777 8.39a3.118 3.118 0 0 1-.575-1.05A4.017 4.017 0 0 1 0 6.055C0 5.2.152 4.41.457 3.687A5.994 5.994 0 0 1 1.76 1.76c.247-.25.528-.48.844-.695C2.92.852 3.22.67 3.5.525c.282-.147.525-.265.728-.356C4.43.08 4.555.02 4.6 0l1.353 1.996c-.25.09-.524.21-.83.355a4.628 4.628 0 0 0-.86.543 2.91 2.91 0 0 0-.678.76A2.15 2.15 0 0 0 3.28 4.67c.656 0 1.23.19 1.727.574s.744.936.744 1.657zm7.866 0a2.444 2.444 0 0 1-.676 1.674c-.226.237-.502.43-.83.575-.327.145-.693.22-1.1.22-.45 0-.884-.086-1.3-.255a2.932 2.932 0 0 1-1.066-.727 3.136 3.136 0 0 1-.575-1.05 4.045 4.045 0 0 1-.205-1.285c0-.856.152-1.646.457-2.368A5.994 5.994 0 0 1 9.625 1.76c.248-.25.53-.48.846-.694a9.05 9.05 0 0 1 .898-.54c.282-.147.524-.266.728-.356a8.91 8.91 0 0 0 .372-.17l1.353 1.997c-.25.09-.523.21-.83.355a4.635 4.635 0 0 0-.86.54 2.89 2.89 0 0 0-.677.762 2.14 2.14 0 0 0-.305 1.015c.654 0 1.23.19 1.725.573.496.382.744.935.744 1.656zM278.776 65.842c0-.294.057-.588.168-.88.113-.294.283-.558.508-.795.226-.237.502-.43.828-.575.328-.146.694-.22 1.1-.22.45 0 .886.085 1.303.253.418.17.772.412 1.065.73.25.292.44.642.575 1.047.135.406.203.834.203 1.286 0 .855-.152 1.645-.457 2.367a5.997 5.997 0 0 1-1.305 1.928c-.248.248-.53.48-.846.693a8.475 8.475 0 0 1-.897.54c-.28.147-.523.267-.727.356s-.326.146-.372.17l-1.353-1.996c.25-.09.524-.21.83-.355s.59-.325.862-.54c.27-.214.496-.47.676-.76.18-.294.28-.63.304-1.015a2.74 2.74 0 0 1-1.725-.576c-.496-.384-.744-.937-.744-1.657zm-7.867 0c0-.294.055-.588.17-.88.11-.294.28-.558.505-.795s.503-.43.83-.575a2.66 2.66 0 0 1 1.1-.22c.45 0 .884.085 1.3.253.418.17.773.412 1.066.73.25.292.44.642.576 1.047.136.406.202.834.202 1.286 0 .855-.152 1.645-.457 2.367a5.994 5.994 0 0 1-1.3 1.928c-.248.248-.53.48-.846.693s-.614.395-.896.54c-.282.147-.525.267-.73.356s-.326.146-.37.17l-1.355-1.996c.25-.09.525-.21.83-.355.304-.144.592-.325.86-.54.272-.214.497-.47.678-.76s.283-.63.306-1.015c-.653 0-1.23-.192-1.726-.576-.494-.384-.743-.937-.743-1.657z"/></svg>