<svg id="Group_43" data-name="Group 43" xmlns="http://www.w3.org/2000/svg" viewBox="0 0 10 9.373">
  <defs>
    <style>
      .cls-1 {
        fill: #878daa;
        fill-rule: evenodd;
      }
    </style>
  </defs>
  <path id="Path_16" data-name="Path 16" class="cls-1" d="M24.994,20A4.849,4.849,0,0,1,30,24.681a4.859,4.859,0,0,1-5.006,4.692A4.848,4.848,0,0,1,20,24.681,4.838,4.838,0,0,1,24.994,20ZM23.11,22.358c-.384-.372-.991.2-.595.557L24.4,24.681l-1.884,1.765c-.4.372.211.929.595.557l1.884-1.754L26.877,27c.4.372.991-.186.595-.557L25.6,24.681l1.871-1.765c.4-.36-.2-.929-.595-.557l-1.884,1.765Z" transform="translate(-20 -20)"/>
</svg>
