<svg xmlns="http://www.w3.org/2000/svg" xmlns:xlink="http://www.w3.org/1999/xlink" viewBox="0 0 58 58.017"><defs><style>.a{fill:#4fe4ec;opacity:0.586;}.b{clip-path:url(#a);}.c{opacity:0.629;}.d{fill:#fff;}</style><clipPath id="a"><ellipse class="a" cx="29" cy="29.008" rx="29" ry="29.008" transform="translate(0 0)"/></clipPath></defs><g transform="translate(0 -0.491)"><g transform="translate(0 0.492)"><ellipse class="a" cx="29" cy="29.008" rx="29" ry="29.008" transform="translate(0 0)"/></g><g class="c" transform="translate(18 17.712)"><path class="d" d="M8.918.735h0A1.112,1.112,0,0,0,8.3.132h0A1.128,1.128,0,0,0,7.879,0H3.393A1.112,1.112,0,0,0,2.271,1.1,1.112,1.112,0,0,0,3.393,2.2H5.172L.357,6.938A1.09,1.09,0,0,0,.035,8.018a1.112,1.112,0,0,0,.809.8,1.134,1.134,0,0,0,1.1-.317L6.757,3.763V5.512A1.122,1.122,0,0,0,9,5.512V1.1A1.079,1.079,0,0,0,8.918.735Z" transform="translate(15)"/><path class="d" d="M7.178.286,2.166,5.213V3.523A1.074,1.074,0,0,0,1.083,2.458,1.074,1.074,0,0,0,0,3.523v4.26A1.074,1.074,0,0,0,1.083,8.847H5.416a1.065,1.065,0,1,0,0-2.13H3.7L8.709,1.791A1.052,1.052,0,0,0,8.683.312a1.1,1.1,0,0,0-1.5-.026Z" transform="translate(0 14.746)"/><path class="d" d="M7.871,2.458A1.1,1.1,0,0,0,6.743,3.523V4.858L1.9.286A1.178,1.178,0,0,0,.331.312,1.022,1.022,0,0,0,.3,1.791L5.524,6.718H3.357a1.067,1.067,0,1,0,0,2.13H7.871A1.1,1.1,0,0,0,9,7.783V3.523A1.1,1.1,0,0,0,7.871,2.458Z" transform="translate(15 14.746)"/><path class="d" d="M4.059,2.219H5.416A1.1,1.1,0,0,0,6.5,1.109,1.1,1.1,0,0,0,5.416,0H1.083A1.1,1.1,0,0,0,0,1.109V5.547A1.1,1.1,0,0,0,1.083,6.656,1.1,1.1,0,0,0,2.166,5.547V3.417L7.178,8.55a1.065,1.065,0,0,0,1.5-.027,1.129,1.129,0,0,0,.027-1.541Z"/></g></g></svg>