<svg xmlns="http://www.w3.org/2000/svg" xmlns:xlink="http://www.w3.org/1999/xlink" viewBox="0 0 58 58"><defs><style>.a{fill:#4fe4ec;opacity:0.586;}.b{clip-path:url(#a);}.c{opacity:0.624;}.d{fill:#fff;stroke:#fff;stroke-miterlimit:10;stroke-width:0.5px;}</style><clipPath id="a"><circle class="a" cx="29" cy="29" r="29" transform="translate(0 0)"/></clipPath></defs><circle class="a" cx="29" cy="29" r="29" transform="translate(0 0)"/><g class="c" transform="translate(16 15.5)"><path class="d" d="M22.994,22.941a.936.936,0,0,0-1.327-.228,10.85,10.85,0,0,1-10.356,1.365A11.32,11.32,0,0,1,4.431,16H15.554a.979.979,0,0,0,0-1.958H4.158c0-.215-.032-.431-.032-.653a4.45,4.45,0,0,1,.032-.653H16.824a.979.979,0,0,0,0-1.958H4.431a11.32,11.32,0,0,1,6.882-8.07A10.85,10.85,0,0,1,21.667,4.079a.932.932,0,0,0,.95.092.98.98,0,0,0,.552-.8.992.992,0,0,0-.4-.891A12.717,12.717,0,0,0,10.416.946a13.294,13.294,0,0,0-7.959,9.836H.952a.979.979,0,0,0,0,1.958h1.3c0,.215-.032.431-.032.653a4.45,4.45,0,0,0,.032.653H.952A.979.979,0,0,0,.952,16H2.476a13.294,13.294,0,0,0,7.959,9.836,12.717,12.717,0,0,0,12.356-1.534,1,1,0,0,0,.2-1.364Z"/></g></svg>