<svg xmlns="http://www.w3.org/2000/svg" viewBox="0 0 19.759 20.5"><defs><style>.a{fill:#4fe4ec;stroke:#4fe4ec;stroke-miterlimit:10;stroke-width:0.5px;}</style></defs><g transform="translate(0.25 0.25)"><path class="a" d="M5.185,10.371a5.185,5.185,0,1,1,5.186-5.185A5.191,5.191,0,0,1,5.185,10.371Zm0-9.662A4.477,4.477,0,1,0,9.661,5.186,4.482,4.482,0,0,0,5.185.708Z" transform="translate(4.444)"/><path class="a" d="M16.943,7.407H2.316A2.238,2.238,0,0,1,0,5.214C0,3.764,1.73,0,9.63,0s9.629,3.764,9.629,5.214A2.238,2.238,0,0,1,16.943,7.407ZM9.63.683C2.349.683.71,4.038.71,5.214A1.531,1.531,0,0,0,2.316,6.725H16.943a1.531,1.531,0,0,0,1.606-1.511C18.549,4.038,16.91.683,9.63.683Z" transform="translate(0 12.593)"/></g></svg>