<svg xmlns="http://www.w3.org/2000/svg" xmlns:xlink="http://www.w3.org/1999/xlink" viewBox="0 0 58 58"><defs><style>.a{fill:#8c92a8;}.a,.b{opacity:0.586;}.b{fill:#4fe4ec;}.c{clip-path:url(#a);}.d{opacity:0.632;}.e{fill:#fff;}</style><clipPath id="a"><circle class="a" cx="29" cy="29" r="29" transform="translate(0 0)"/></clipPath></defs><circle class="b" cx="29" cy="29" r="29" transform="translate(0 0)"/><g class="d" transform="translate(13 18)"><path class="e" d="M14.009,15.351l-3,2.927V1.134a1.14,1.14,0,0,0-2.281,0V20.327l-.76.756-.76-.756V1.134a1.14,1.14,0,0,0-2.281,0v17L1.952,15a1.145,1.145,0,0,0-1.6-.028A1.13,1.13,0,0,0,.3,16.561l4.941,5.2a1.134,1.134,0,0,0,.487.295L7.16,23.488a1.145,1.145,0,0,0,1.612,0l1.444-1.437a1.119,1.119,0,0,0,.449-.257l4.941-4.817a1.132,1.132,0,0,0-.478-1.932,1.144,1.144,0,0,0-1.119.314Z" transform="translate(23.988 2.997) rotate(90)"/><path class="e" d="M19.385,0H1.14a1.134,1.134,0,1,0,0,2.269H19.385a1.134,1.134,0,1,0,0-2.269Z" transform="translate(28.147 0.699) rotate(90)"/></g></svg>