<svg xmlns="http://www.w3.org/2000/svg" viewBox="0 0 24.705 27.7"><defs><style>.a{fill:#1b2345;stroke:#fff;stroke-miterlimit:10;stroke-width:0.7px;}</style></defs><g transform="translate(0.355 0.35)"><path class="a" d="M12,27a12.014,12.014,0,0,1-8.485-3.461A11.645,11.645,0,0,1,0,15.186a11.389,11.389,0,0,1,.127-1.661A11.633,11.633,0,0,1,.966,7.172,11.844,11.844,0,0,1,5.048,2.185,12.069,12.069,0,0,1,12,0a12.2,12.2,0,0,1,5.542,1.337,11.921,11.921,0,0,1,4.739,4.388A11.671,11.671,0,0,1,24,11.9a11.81,11.81,0,0,1-.126,1.621,11.583,11.583,0,0,1-3.389,10.015A12.014,12.014,0,0,1,12,27ZM3.334,20.017h0A10.046,10.046,0,0,0,12,25.031h.013a10.04,10.04,0,0,0,8.714-5.015,12.074,12.074,0,0,1-17.392,0ZM12,2.057A9.935,9.935,0,0,0,2,11.9a9.935,9.935,0,0,0,10,9.846A9.935,9.935,0,0,0,22,11.9,9.935,9.935,0,0,0,12,2.057Z"/></g></svg>