<svg xmlns="http://www.w3.org/2000/svg" viewBox="0 0 20 17.602">
  <defs>
    <style>
      .cls-1 {
        fill: #878daa;
      }
    </style>
  </defs>
  <g id="Group_41" data-name="Group 41" transform="translate(0 0)">
    <g id="Group_37" data-name="Group 37">
      <path id="Path_14" data-name="Path 14" class="cls-1" d="M20.688,8.033h-6.25a.3.3,0,0,0-.313.313v1.688L12.906,7.564l.469-1.75A.62.62,0,0,0,12.5,5.1l-.5.25-1.031-.5a.6.6,0,0,0-.563,0l-.969.5-.5-.25a.637.637,0,0,0-.875.75l.5,1.75a68.149,68.149,0,0,0-3.344,7.344,6.509,6.509,0,0,0-.937.375v-.25a.627.627,0,0,0-.625-.625H1.625A.627.627,0,0,0,1,15.064v6.687a.627.627,0,0,0,.625.625H3.656c.781,0,.594-.938.625-1a2.823,2.823,0,0,1,1.531-.25,50.248,50.248,0,0,0,5.938.969,5.612,5.612,0,0,0,.687-.063,24.619,24.619,0,0,0,4.719-2.562c.469-.438.813-.938.469-1.5h3.063A.3.3,0,0,0,21,17.658V8.345A.3.3,0,0,0,20.688,8.033Zm-.313,3.719H14.75V10.5h5.625Zm0,1.875H14.75v-1.25h5.625Zm-5.625.625h5.625V15.5H14.75Zm0-5.594h5.625v1.25H14.75ZM9.156,5.908a.6.6,0,0,0,.562,0l.969-.5,1,.5a.6.6,0,0,0,.562,0l.5-.25-.438,1.656H9.125L8.656,5.689ZM1.625,21.783V15.064H3.656v6.687H1.625ZM16.719,19a24.128,24.128,0,0,1-4.406,2.406,3.48,3.48,0,0,1-.531.063,53.2,53.2,0,0,1-5.812-.937,2.937,2.937,0,0,0-1.687.188V16c.719-.312,1.469-1.063,5.062-.312a17.892,17.892,0,0,1,3.156.875.425.425,0,0,1,.25.594c-.031.125-.156.219-.562.281a7.064,7.064,0,0,1-1.813-.031.99.99,0,0,0-.219,1.969,10.133,10.133,0,0,0,6.219-1.156.51.51,0,0,1,.469-.062C17.375,18.314,17.094,18.658,16.719,19Zm-6.469-.25a.362.362,0,1,1,.094-.719,8.041,8.041,0,0,0,1.938.031c1.5-.187,1.406-1.719.438-2.062a21.629,21.629,0,0,0-3.25-.906,10.959,10.959,0,0,0-3.562-.281A71.309,71.309,0,0,1,9.062,7.908h.531v3.625a.313.313,0,0,0,.625,0V7.908h.938v1.75a.312.312,0,1,0,.625,0V7.908h.563l1.781,3.531c0,6.625-.094,6.531.313,6.531H15.5A9.316,9.316,0,0,1,10.25,18.752Zm10.125-1.406H14.75V16.1h5.625Z" transform="translate(-1 -4.775)"/>
    </g>
    <g id="Group_38" data-name="Group 38" transform="translate(6.997 7.733)">
      <rect id="Rectangle_7" data-name="Rectangle 7" class="cls-1" width="2" height="2"/>
    </g>
    <g id="Group_39" data-name="Group 39" transform="translate(8.739 7.733)">
      <rect id="Rectangle_8" data-name="Rectangle 8" class="cls-1" width="2" height="2"/>
    </g>
    <g id="Group_40" data-name="Group 40" transform="translate(10.481 7.733)">
      <rect id="Rectangle_9" data-name="Rectangle 9" class="cls-1" width="2" height="2"/>
    </g>
  </g>
</svg>
