<svg xmlns="http://www.w3.org/2000/svg" xmlns:xlink="http://www.w3.org/1999/xlink" viewBox="0 0 28.833 30.719"><defs><style>.a{fill:none;}.b{clip-path:url(#a);}.c{fill:#878daa;}</style><clipPath id="a"><path class="a" d="M0,0H28.833V30.719H0Z" transform="translate(0.039)"/></clipPath></defs><g transform="translate(-0.039)"><path class="a" d="M0,0H28.833V30.719H0Z" transform="translate(0.039)"/><g class="b"><path class="c" d="M28.355,30.758H.517A.515.515,0,0,1,0,30.245V2.563A.515.515,0,0,1,.517,2.05H4.123V.513A.515.515,0,0,1,4.64,0h3.61a.515.515,0,0,1,.517.513V2.05h11.34V.513A.515.515,0,0,1,20.623,0h3.61a.514.514,0,0,1,.513.513V2.05h3.61a.515.515,0,0,1,.517.513V30.245A.515.515,0,0,1,28.355,30.758ZM1.032,8.716V29.731H27.84V8.716Zm0-5.639V7.69H27.84V3.076H24.746V4.613a.514.514,0,0,1-.513.513h-3.61a.515.515,0,0,1-.517-.513V3.076H8.766V4.613a.515.515,0,0,1-.517.513H4.64a.515.515,0,0,1-.517-.513V3.076ZM21.138,1.027V4.1h2.578V1.027Zm-15.983,0V4.1H7.734V1.027Z"/></g><path class="c" d="M19.593,14.869H0V0H19.593V14.868Zm-4.642-4.616v3.589h3.61V10.253Zm-4.639,0v3.589h3.61V10.253Zm-4.64,0v3.589h3.61V10.253Zm-4.639,0v3.589H4.64V10.253ZM14.951,5.639v3.59h3.61V5.639Zm-4.639,0v3.59h3.61V5.639Zm-4.64,0v3.59h3.61V5.639Zm-4.639,0v3.59H4.64V5.639ZM14.951,1.027V4.616h3.61V1.027Zm-4.639,0V4.616h3.61V1.027Zm-4.64,0V4.616h3.61V1.027Zm-4.639,0V4.616H4.64V1.027Z" transform="translate(4.639 11.789)"/></g></svg>