<svg xmlns="http://www.w3.org/2000/svg" viewBox="0 0 260 108"><defs><style>.a,.f{fill:none;}.a,.d{stroke:#fff;}.a,.c,.d{stroke-miterlimit:10;}.a{stroke-dasharray:6 6;}.b,.c,.d{fill:#fff;}.c{stroke:#3d4461;}.e{stroke:none;}</style></defs><g class="a"><rect class="e" width="260" height="108" rx="3"/><rect class="f" x="0.5" y="0.5" width="259" height="107" rx="2.5"/></g><g transform="translate(30 29)"><g transform="translate(108 12) rotate(180)"><path class="b" d="M-11,22.242a.925.925,0,0,1-1.284-.023.925.925,0,0,1-.023-1.284l9.863-9.863L-12.3,1.555A.925.925,0,0,1-12.281.271.925.925,0,0,1-11,.248L0,11.072Z" transform="rotate(180)"/></g><g transform="translate(198.277) rotate(180)"><path class="b" d="M-56.6,47.545h51.97A4.675,4.675,0,0,0,0,42.838V4.707A4.675,4.675,0,0,0-4.631,0H-56.6a4.675,4.675,0,0,0-4.631,4.707V42.848A4.67,4.67,0,0,0-56.6,47.545Zm51.97-45.66A2.8,2.8,0,0,1-1.855,4.707V42.848A2.8,2.8,0,0,1-4.631,45.67H-56.6a2.808,2.808,0,0,1-2.788-2.822V4.707A2.808,2.808,0,0,1-56.6,1.886Z" transform="translate(0 -0.45) rotate(180)"/><path class="b" d="M-12.354,2.043H-.923A.971.971,0,0,0,0,1.028.975.975,0,0,0-.923,0H-12.354a.975.975,0,0,0-.923,1.028A.971.971,0,0,0-12.354,2.043Z" transform="translate(38.809 -15.319) rotate(180)"/><path class="b" d="M-12.354,2.043H-.923A.975.975,0,0,0,0,1.02.968.968,0,0,0-.923,0H-12.354a.968.968,0,0,0-.923,1.02A.975.975,0,0,0-12.354,2.043Z" transform="translate(38.809 -24.511) rotate(180)"/><path class="b" d="M-12.354,2.043H-.923A.97.97,0,0,0,0,1.026.973.973,0,0,0-.923,0H-12.354a.973.973,0,0,0-.923,1.026A.97.97,0,0,0-12.354,2.043Z" transform="translate(38.809 -32.681) rotate(180)"/></g><path class="c" d="M5.326,3.2A.648.648,0,0,0,6,2.564V.644A.661.661,0,0,0,5.326,0H.674A.661.661,0,0,0,0,.644v1.92a.648.648,0,0,0,.674.64Z" transform="translate(12 1)"/><path class="c" d="M12.991,26A13,13,0,0,1,3.8,3.811a13,13,0,0,1,22.2,9.2A13,13,0,0,1,12.991,26Zm0-23.108A10.116,10.116,0,1,0,23.108,13.009,10.127,10.127,0,0,0,12.991,2.893Z" transform="translate(21 11)"/><path class="c" d="M59.084,47H5.916a7.469,7.469,0,0,1-2.958-.735A5.17,5.17,0,0,1,.924,44.519,6,6,0,0,1,0,41.118V11.745a5.964,5.964,0,0,1,.924-3.39A5.165,5.165,0,0,1,2.958,6.614a7.488,7.488,0,0,1,2.958-.733H20.093L23.224.676A1.578,1.578,0,0,1,24.421,0H43.534a1.524,1.524,0,0,1,1.182.676l3.146,5.206H59.084a7.488,7.488,0,0,1,2.958.733,5.165,5.165,0,0,1,2.033,1.741A5.964,5.964,0,0,1,65,11.745V41.118a6,6,0,0,1-.924,3.4,5.169,5.169,0,0,1-2.034,1.746A7.469,7.469,0,0,1,59.084,47ZM5.942,8.8a2.942,2.942,0,0,0-2.983,3V41.063a2.94,2.94,0,0,0,2.983,3H59.054a2.943,2.943,0,0,0,2.988-3V11.8a2.945,2.945,0,0,0-2.988-3H46.031L42.293,2.941H25.373L22.082,8.8Z"/><g transform="translate(167 13)"><path class="d" d="M5.963,11.926a5.963,5.963,0,1,1,5.963-5.963A5.97,5.97,0,0,1,5.963,11.926Zm0-11.111a5.148,5.148,0,1,0,5.147,5.148A5.154,5.154,0,0,0,5.963.815Z" transform="translate(5.111)"/><path class="d" d="M19.485,8.519H2.663A2.574,2.574,0,0,1,0,6C0,4.328,1.99,0,11.075,0S22.148,4.328,22.148,6A2.574,2.574,0,0,1,19.485,8.519ZM11.075.786C2.7.786.817,4.644.817,6A1.76,1.76,0,0,0,2.663,7.733H19.485A1.76,1.76,0,0,0,21.331,6C21.331,4.644,19.447.786,11.075.786Z" transform="translate(0 14.481)"/></g></g></svg>