<svg xmlns="http://www.w3.org/2000/svg" viewBox="0 0 260 108"><defs><style>.a,.b,.c{fill:#fff;}.b,.c{stroke:#3d4461;}.b,.c,.d{stroke-miterlimit:10;}.c{stroke-width:0.5px;}.d,.f{fill:none;}.d{stroke:#fff;stroke-dasharray:6 6;}.e{stroke:none;}</style></defs><g transform="translate(-58 -186)"><g transform="translate(92 216)"><g transform="translate(110 12) rotate(180)"><path class="a" d="M-11,22.242a.925.925,0,0,1-1.284-.023.925.925,0,0,1-.023-1.284l9.863-9.863L-12.3,1.555A.925.925,0,0,1-12.281.271.925.925,0,0,1-11,.248L0,11.072Z" transform="rotate(180)"/></g><path class="b" d="M5.326,3.2A.648.648,0,0,0,6,2.564V.644A.661.661,0,0,0,5.326,0H.674A.661.661,0,0,0,0,.644v1.92a.648.648,0,0,0,.674.64Z" transform="translate(12 1)"/><path class="b" d="M12.991,26A13,13,0,0,1,3.8,3.811a13,13,0,0,1,22.2,9.2A13,13,0,0,1,12.991,26Zm0-23.108A10.116,10.116,0,1,0,23.108,13.009,10.127,10.127,0,0,0,12.991,2.893Z" transform="translate(21 11)"/><path class="b" d="M59.084,47H5.916a7.469,7.469,0,0,1-2.958-.735A5.17,5.17,0,0,1,.924,44.519,6,6,0,0,1,0,41.118V11.745a5.964,5.964,0,0,1,.924-3.39A5.165,5.165,0,0,1,2.958,6.614a7.488,7.488,0,0,1,2.958-.733H20.093L23.224.676A1.578,1.578,0,0,1,24.421,0H43.534a1.524,1.524,0,0,1,1.182.676l3.146,5.206H59.084a7.488,7.488,0,0,1,2.958.733,5.165,5.165,0,0,1,2.033,1.741A5.964,5.964,0,0,1,65,11.745V41.118a6,6,0,0,1-.924,3.4,5.169,5.169,0,0,1-2.034,1.746A7.469,7.469,0,0,1,59.084,47ZM5.942,8.8a2.942,2.942,0,0,0-2.983,3V41.063a2.94,2.94,0,0,0,2.983,3H59.054a2.943,2.943,0,0,0,2.988-3V11.8a2.945,2.945,0,0,0-2.988-3H46.031L42.293,2.941H25.373L22.082,8.8Z"/></g><g transform="translate(232 219)"><path class="a" d="M11.255,22.512A11.256,11.256,0,1,1,22.512,11.256,11.268,11.268,0,0,1,11.255,22.512Zm0-20.974a9.718,9.718,0,1,0,9.717,9.718A9.728,9.728,0,0,0,11.255,1.538Z" transform="translate(10.233)"/><path class="a" d="M36.91,16.372H5.044A4.906,4.906,0,0,1,0,11.524C0,8.318,3.768,0,20.976,0S41.954,8.318,41.954,11.524A4.906,4.906,0,0,1,36.91,16.372ZM20.976,1.51C5.117,1.51,1.547,8.926,1.547,11.524a3.355,3.355,0,0,0,3.5,3.339H36.91a3.355,3.355,0,0,0,3.5-3.339C40.406,8.926,36.837,1.51,20.976,1.51Z" transform="translate(0 27.628)"/></g><path class="b" d="M10,20a1.11,1.11,0,0,1-1.055-.76L6.9,13.1.759,11.054a1.112,1.112,0,0,1,0-2.109L6.9,6.9,8.946.76a1.111,1.111,0,0,1,2.108,0L13.1,6.9l6.138,2.047a1.111,1.111,0,0,1,0,2.109L13.1,13.1l-2.048,6.139A1.111,1.111,0,0,1,10,20ZM10,4.624l-1.168,3.5a1.113,1.113,0,0,1-.7.7L4.624,10l3.5,1.167a1.116,1.116,0,0,1,.7.7L10,15.376l1.168-3.5a1.117,1.117,0,0,1,.7-.7L15.376,10,11.87,8.832a1.113,1.113,0,0,1-.7-.7Z" transform="translate(223 205.001)"/><path class="c" d="M6.5,13a.722.722,0,0,1-.686-.494l-1.33-3.99L.493,7.186a.723.723,0,0,1,0-1.372l3.991-1.33L5.815.494a.722.722,0,0,1,1.37,0l1.331,3.99,3.99,1.33a.723.723,0,0,1,0,1.372l-3.99,1.33-1.331,3.99A.72.72,0,0,1,6.5,13Zm0-9.995L5.74,5.283a.716.716,0,0,1-.456.458L3.006,6.5l2.278.759a.716.716,0,0,1,.456.458L6.5,9.994l.76-2.277a.716.716,0,0,1,.456-.458L9.994,6.5,7.716,5.741a.716.716,0,0,1-.456-.458Z" transform="translate(269 227)"/><g class="d" transform="translate(58 186)"><rect class="e" width="260" height="108" rx="3"/><rect class="f" x="0.5" y="0.5" width="259" height="107" rx="2.5"/></g></g></svg>