<svg xmlns="http://www.w3.org/2000/svg" viewBox="0 0 65 47"><defs><style>.a{fill:#878daa;}</style></defs><g transform="translate(-294.5 -427)"><path class="a" d="M5.326,3.2A.648.648,0,0,0,6,2.564V.644A.661.661,0,0,0,5.326,0H.674A.661.661,0,0,0,0,.644v1.92a.648.648,0,0,0,.674.64Z" transform="translate(306.5 428)"/><path class="a" d="M12.991,26A13,13,0,0,1,3.8,3.811a13,13,0,0,1,22.2,9.2A13,13,0,0,1,12.991,26Zm0-23.108A10.116,10.116,0,1,0,23.108,13.009,10.127,10.127,0,0,0,12.991,2.893Z" transform="translate(315.5 438)"/><path class="a" d="M59.084,47H5.916a7.469,7.469,0,0,1-2.958-.735A5.17,5.17,0,0,1,.924,44.519,6,6,0,0,1,0,41.118V11.745a5.964,5.964,0,0,1,.924-3.39A5.165,5.165,0,0,1,2.958,6.614a7.488,7.488,0,0,1,2.958-.733H20.093L23.224.676A1.578,1.578,0,0,1,24.421,0H43.534a1.524,1.524,0,0,1,1.182.676l3.146,5.206H59.084a7.488,7.488,0,0,1,2.958.733,5.165,5.165,0,0,1,2.033,1.741A5.964,5.964,0,0,1,65,11.745V41.118a6,6,0,0,1-.924,3.4,5.169,5.169,0,0,1-2.034,1.746A7.469,7.469,0,0,1,59.084,47ZM5.942,8.8a2.942,2.942,0,0,0-2.983,3V41.063a2.94,2.94,0,0,0,2.983,3H59.054a2.943,2.943,0,0,0,2.988-3V11.8a2.945,2.945,0,0,0-2.988-3H46.031L42.293,2.941H25.373L22.082,8.8Z" transform="translate(294.5 427)"/></g></svg>