<svg xmlns="http://www.w3.org/2000/svg" viewBox="0 0 87.721 92">
  <defs>
    <style>
      .cls-1 {
        fill: none;
      }
    </style>
  </defs>
  <g id="Contract" transform="translate(-20.1 -18)">
    <path id="Tracé_17" data-name="Tracé 17" d="M23.1,18a2.946,2.946,0,0,0-3,3v86a2.946,2.946,0,0,0,3,3h61a3.009,3.009,0,0,0,3-3V92.1a1,1,0,0,0-2,0V107a1,1,0,0,1-1,1h-61a.945.945,0,0,1-1-1V21a.945.945,0,0,1,1-1h61a.945.945,0,0,1,1,1V53.8a1,1,0,0,0,2,0V21a2.946,2.946,0,0,0-3-3Zm13.5,9.5a.5.5,0,0,0,0,1h34a.5.5,0,0,0,0-1Zm-10,8a.5.5,0,1,0,0,1h54a.5.5,0,0,0,0-1Zm0,6a.5.5,0,1,0,0,1h54a.5.5,0,0,0,0-1Zm0,6a.5.5,0,1,0,0,1h54a.5.5,0,0,0,0-1Zm70.725.8A3.167,3.167,0,0,0,95.2,49.4l-2.482,3.016L92.7,52.4l-2.941,3.627L71.2,78.2l-3,14.2a1.163,1.163,0,0,0,.2,1,1.269,1.269,0,0,0,.9.4.9.9,0,0,0,.5-.1l13.4-5.5,18.5-22.1,0,0,2.69-3.209.011.01.217-.279.184-.221-.01-.008L107.1,59.4a3.169,3.169,0,0,0,.7-2.3,2.61,2.61,0,0,0-1.1-2.1l-7.1-6A3.064,3.064,0,0,0,97.324,48.3Zm.15,1.512A1.66,1.66,0,0,1,98.7,50.2l7.1,6a1.579,1.579,0,0,1,.2,2.3l-2.4,2.91-9.682-8L96.4,50.4A1.463,1.463,0,0,1,97.475,49.813ZM26.6,53.5a.5.5,0,1,0,0,1h54a.5.5,0,0,0,0-1Zm66.3,1,9.8,8.1-1.638,1.951-9.766-8.139Zm-2.5,3.1,2.594,2.166L75.311,80.951,72.7,78.775ZM26.6,59.5a.5.5,0,1,0,0,1h54a.5.5,0,0,0,0-1Zm67.162.906L96.629,62.8,78.945,83.986l-2.869-2.395ZM97.4,63.443l2.7,2.256L82.4,86.875l-2.691-2.246ZM66.6,65.5a.5.5,0,0,0,0,1h9a.5.5,0,0,0,0-1Zm5.8,14.328,9.02,7.529L71.883,91.25a3.692,3.692,0,0,0-1.607-1.391ZM45.9,80.9c-2,0-4.6,1.1-5.6,3.1-1.6,3,.8,5.9,2.2,7.7a5.287,5.287,0,0,1,.9,1.1c-.3.9-2.5.9-3.6.7a.51.51,0,1,0-.2,1c.4.1,4.2.6,4.7-1.4.2-.5-.2-1-1-2-1.3-1.7-3.3-4.2-2.1-6.6A5.62,5.62,0,0,1,45.9,82a2.143,2.143,0,0,1,1.9.8c.3.5.1,1.3-.6,2.2-2,2.9-2.9,7.2-1.8,8.9a1.477,1.477,0,0,0,1.6.7,1.433,1.433,0,0,0,1.3-1.9,2.111,2.111,0,0,1,1-2.4l.1-.1v1c0,1.3-.1,3.3,1.6,3.4h.2a1.33,1.33,0,0,0,1.4-1.5c.4-.7.5-.9.8-.8a2.624,2.624,0,0,1,.9.5c1,.8,2.5,1.9,10.6,1.6a.5.5,0,0,0,0-1c-7.7.3-9-.7-9.9-1.4a2.328,2.328,0,0,0-1.3-.7c-1.1-.2-1.5.7-1.8,1.3-.3.7-.5.9-1,.9-.6-.1-.7-.9-.6-2.4,0-.9,0-1.7-.5-2-.5-.2-1,.2-1.2.3a3.061,3.061,0,0,0-1.4,3.3c.1.7.1.7-.5.8a.365.365,0,0,1-.5-.2c-.7-1.2-.1-5.1,1.8-7.8,1.2-1.6,1-2.7.7-3.3A2.937,2.937,0,0,0,45.9,80.9Zm24.264,9.486a3.261,3.261,0,0,1,1.271,1.047L69.8,92.1Z"/>
    <path id="Tracé_18" data-name="Tracé 18" class="cls-1" d="M80.6,78"/>
    <path id="Tracé_19" data-name="Tracé 19" class="cls-1" d="M84.1,86"/>
  </g>
</svg>
