<svg xmlns="http://www.w3.org/2000/svg" viewBox="0 0 62.456 47.983"><defs><style>.a{fill:#878daa;}</style></defs><g transform="translate(-48.544 -459.45)"><g transform="translate(109.777 459) rotate(180)"><path class="a" d="M-56.508,47.983H-3.5a4.743,4.743,0,0,0,4.724-4.75V4.75A4.743,4.743,0,0,0-3.5,0H-56.508a4.743,4.743,0,0,0-4.724,4.75V43.243A4.738,4.738,0,0,0-56.508,47.983ZM-3.5,1.9A2.843,2.843,0,0,1-.669,4.75V43.243A2.843,2.843,0,0,1-3.5,46.09H-56.508a2.849,2.849,0,0,1-2.844-2.847V4.75A2.849,2.849,0,0,1-56.508,1.9Z" transform="translate(0 -0.45) rotate(180)"/></g><g transform="translate(74.734 467)"><path class="a" d="M10.82,21.639A10.819,10.819,0,1,1,21.639,10.82,10.832,10.832,0,0,1,10.82,21.639Zm0-20.159a9.34,9.34,0,1,0,9.339,9.341A9.351,9.351,0,0,0,10.82,1.479Z" transform="translate(-4.73 -2)"/><path class="a" d="M31.3,13.685H4.278A4.135,4.135,0,0,1,0,9.632C0,6.953,3.2,0,17.791,0S35.58,6.953,35.58,9.632A4.135,4.135,0,0,1,31.3,13.685ZM17.791,1.262c-13.451,0-16.478,6.2-16.478,8.37a2.828,2.828,0,0,0,2.965,2.79H31.3a2.828,2.828,0,0,0,2.965-2.79C34.268,7.461,31.241,1.262,17.791,1.262Z" transform="translate(-14 21.649)"/><path class="a" d="M4.656,9.311A4.655,4.655,0,1,1,9.311,4.656,4.661,4.661,0,0,1,4.656,9.311Zm0-8.674A4.019,4.019,0,1,0,8.674,4.656,4.024,4.024,0,0,0,4.656.637Z" transform="translate(19.27 15.328)"/><path class="a" d="M4.656,9.311A4.655,4.655,0,1,1,9.311,4.656,4.661,4.661,0,0,1,4.656,9.311Zm0-8.674A4.019,4.019,0,1,0,8.674,4.656,4.024,4.024,0,0,0,4.656.637Z" transform="translate(-18.73 6.328)"/></g></g></svg>