<svg xmlns="http://www.w3.org/2000/svg" viewBox="0 0 65 64.3"><g transform="translate(0 -0.3)"><path d="M26.9,39A2.948,2.948,0,0,1,28,41.2h1.5a4.374,4.374,0,0,0-1.6-3.3A5.922,5.922,0,0,0,25,36.6V33.2H23.5v3.4a5.149,5.149,0,0,0-2.9,1.3A4.538,4.538,0,0,0,19,41.2a4.374,4.374,0,0,0,1.6,3.3,5.405,5.405,0,0,0,3.7,1.3,3.775,3.775,0,0,1,2.7,1,2.75,2.75,0,0,1,0,4.4,4.5,4.5,0,0,1-5.4,0A2.948,2.948,0,0,1,20.5,49H19a4.374,4.374,0,0,0,1.6,3.3,5.922,5.922,0,0,0,2.9,1.3V57H25V53.6a5.149,5.149,0,0,0,2.9-1.3A4.538,4.538,0,0,0,29.5,49a4.374,4.374,0,0,0-1.6-3.3,5.405,5.405,0,0,0-3.7-1.3,3.775,3.775,0,0,1-2.7-1,2.75,2.75,0,0,1,0-4.4A4.226,4.226,0,0,1,26.9,39Z"/><path d="M17.4,12.9l1.5.2c.2-1.8-1.1-3.8-2.3-5.9-.8-1.3-1.9-3-1.7-3.6,0,0,0-.1.2-.2.6-.3,1.2.1,2,.7a3.4,3.4,0,0,0,1.5.7,3.423,3.423,0,0,0,2.8-1.3c.7-.6,1-.8,1.4-.7a1.38,1.38,0,0,1,.3.4,2.758,2.758,0,0,0,1.4,1.2c1.9.7,3.4-.5,4.6-1.4a4.145,4.145,0,0,1,2.2-1.1h0c.8,0,.9.1.9.1.1.3-.7,1.4-1,1.8l-.3.4a19.123,19.123,0,0,0-3.3,8.6l1.5.2a17.885,17.885,0,0,1,3-7.9l.3-.4c.8-1,1.7-2.3,1.2-3.4-.5-1-1.8-1-2.3-1h0a4.8,4.8,0,0,0-3.1,1.5C27,2.8,26.1,3.4,25,3a4.62,4.62,0,0,1-.7-.7,2.836,2.836,0,0,0-1-.9,3.052,3.052,0,0,0-3,1,2.235,2.235,0,0,1-1.7.9,4.454,4.454,0,0,1-.8-.5A3.528,3.528,0,0,0,14.3,2a2.007,2.007,0,0,0-1,1.1c-.4,1.3.6,2.9,1.8,4.8C16.4,9.7,17.6,11.7,17.4,12.9Z"/><path d="M29.8,16.7v-.3a2.112,2.112,0,0,0-2.1-2.1h-9a2.112,2.112,0,0,0-2.1,2.1v.3a2.112,2.112,0,0,0,2.1,2.1h9A2.18,2.18,0,0,0,29.8,16.7Zm-1.5,0a.645.645,0,0,1-.6.6h-9a.645.645,0,0,1-.6-.6v-.3a.645.645,0,0,1,.6-.6h9a.645.645,0,0,1,.6.6Z"/><path d="M61.7,39.1a13.04,13.04,0,0,0-.2-4.4l3.1-2.2-2.5-5.4-3.7.9a13,13,0,0,0-3.2-3l.6-3.8-5.5-2.1-2,3.3a13.04,13.04,0,0,0-4.4.2l-2.2-3.1L36.3,22l.9,3.7a18.882,18.882,0,0,0-2,2,83.545,83.545,0,0,1-6-8.3l-1.2.9a90.412,90.412,0,0,0,6.7,9.2,77.491,77.491,0,0,1,7.1,9.9c1.8,3,7,13.6.7,21.2a16.022,16.022,0,0,1-2.7,2.5H10.1C7,60.9,3.2,57.1,3,50.8,2.6,43.3,6.7,38,11.1,32.4c2.9-3.7,5.8-7.5,7.5-12l-1.4-.5c-1.6,4.3-4.5,8-7.3,11.6C5.6,37,1.1,42.9,1.4,50.9A16.268,16.268,0,0,0,7.6,63.1H0v1.5H49.5V63.1H42.2c.5-.5,1-1,1.5-1.6a14.724,14.724,0,0,0,3.3-9,21.052,21.052,0,0,0,2.5-.2l2.2,3.1,5.4-2.5-.9-3.7a13,13,0,0,0,3-3.2l3.8.6,2-5.5ZM40.4,34.5a6.949,6.949,0,0,1,8.8-3.6,7.415,7.415,0,0,1,3.9,3.7,6.9,6.9,0,0,1-7.4,9.7,38.468,38.468,0,0,0-2.6-5.8A46.851,46.851,0,0,0,40.4,34.5ZM61.9,44.9l-3.5-.6-.3.4a14.173,14.173,0,0,1-3.3,3.6l-.4.3.9,3.5-3.1,1.4-2.1-2.9-.5.1A10.9,10.9,0,0,1,47,51a24.9,24.9,0,0,0-.8-5h.6a8.389,8.389,0,0,0,7.9-5.5,8.614,8.614,0,0,0-.2-6.5,8.142,8.142,0,0,0-4.7-4.4,8.464,8.464,0,0,0-10.3,3.6c-1.1-1.4-2.1-2.8-3.2-4.2a10.441,10.441,0,0,1,2.4-2.3l.4-.3-.9-3.5,3.1-1.4,2.1,2.9.5-.1a13.393,13.393,0,0,1,4.9-.2l.5.1,1.8-3.1,3.2,1.2-.6,3.5.4.3a14.173,14.173,0,0,1,3.6,3.3l.3.4,3.5-.9L62.9,32,60,34.1l.1.5a13.484,13.484,0,0,1,.2,4.9l-.3.4,3.1,1.8Z"/></g></svg>