<svg xmlns="http://www.w3.org/2000/svg" viewBox="0 0 17.717 19.83"><defs><style>.a{fill:#149a0a;}</style></defs><path class="a" d="M13.38,30.831a13.622,13.622,0,0,0,0-5.066,3.531,3.531,0,0,1,.752-1.851,3.575,3.575,0,0,0,1.987,1.421A4.237,4.237,0,0,0,17.3,25.5a4.891,4.891,0,0,0,2.595-.772c1.568-.994,2.929-3.346,4.023-5.225a9.734,9.734,0,0,1,1.8-2.6c.363-.219.239-.476.211-.515-.448-.785-7.138-.157-9.49,1.12-3.058,1.655-3.815,3.351-2.625,5.848,0,.026.028.051.041.077a4.1,4.1,0,0,0-.705,1.127q-.039-.16-.08-.322c-.481-1.843-.952-3.38-1.287-4.448.976-.587,1.287-1.8.844-3.346a16.707,16.707,0,0,0-1.876-3.117c-1.717-2.42-1.99-2.353-2.154-2.317-.049,0-.283.085-.221.43a7.619,7.619,0,0,1-.031,1.526A12.857,12.857,0,0,0,8.6,17.556a3.321,3.321,0,0,0,1.7,2.262,1.874,1.874,0,0,0,.741.19,1.339,1.339,0,0,0,.257,0c.342,1.058.806,2.574,1.287,4.376.124.474.216.932.286,1.369h0a.257.257,0,0,0,.018.118,12.378,12.378,0,0,1-.134,4.69S13.365,30.813,13.38,30.831ZM16.672,17.95c1.848-1,5.6-1.4,7.583-1.4a7.189,7.189,0,0,1,1,.054,12,12,0,0,0-1.779,2.638c-1.066,1.838-2.394,4.118-3.861,5.047a4.2,4.2,0,0,1-3.346.541,3.089,3.089,0,0,1-1.773-1.318,4.782,4.782,0,0,1,1.65-1.03.257.257,0,0,0-.16-.489,5.3,5.3,0,0,0-1.743,1.045C13.23,20.856,13.9,19.466,16.672,17.95Zm-5.457.219a.257.257,0,0,0-.481.18s.154.422.394,1.14a1.287,1.287,0,0,1-.633-.126,2.83,2.83,0,0,1-1.421-1.938,12.556,12.556,0,0,1-.234-4.409c.036-.471.064-.875.059-1.212a24.442,24.442,0,0,1,3.217,4.8c.365,1.238.175,2.2-.515,2.685-.234-.692-.381-1.094-.386-1.1Z" transform="translate(-8.254 -11.001)"/></svg>