<svg xmlns="http://www.w3.org/2000/svg" viewBox="0 0 20 17.712">
  <defs>
    <style>
      .cls-1 {
        fill: #878daa;
      }
    </style>
  </defs>
  <g id="Group_42" data-name="Group 42" transform="translate(0 0)">
    <path id="Path_15" data-name="Path 15" class="cls-1" d="M22.648,18.156a.907.907,0,0,0-.638.259.888.888,0,0,0,0,1.255A.909.909,0,0,0,23.1,19.8l1.016,1-2.26,2.251a.228.228,0,0,0,0,.306,3.639,3.639,0,0,0,3.63.9v1.412H19.152a.957.957,0,0,0-.968.737l-.614,1.679-2.8.816a.884.884,0,0,0-.724.769v3.686a.674.674,0,0,0,.677.667h.811a1.995,1.995,0,0,0,3.977,0h9.071a1.994,1.994,0,0,0,3.976,0h1.055a.429.429,0,0,0,.433-.424V26.1a.408.408,0,0,0-.134-.3.458.458,0,0,0-.268-.118c-.008-.008-.016-.008-.031-.008H29.428L27.042,23.3a3.6,3.6,0,0,0-.055-5.044.21.21,0,0,0-.157-.07.2.2,0,0,0-.157.07l-2.244,2.236-1.008-1a.878.878,0,0,0-.142-1.067.9.9,0,0,0-.63-.267Zm.307.573a.439.439,0,0,1,.008.635.45.45,0,0,1-.638-.635.433.433,0,0,1,.63,0Zm3.858.008a3.163,3.163,0,0,1-4.473,4.455l2.236-2.228Zm-.095,4.871L28.8,25.678H25.924V24.1a3.373,3.373,0,0,0,.8-.494Zm-7.59,2.51H33.6v7.475H32.538a1.992,1.992,0,0,0-3.945,0h-9.1a2,2,0,0,0-3.953,0H14.72a.23.23,0,0,1-.236-.227V29.679c0-.2.15-.274.291-.314l3.023-.879a.223.223,0,0,0,.15-.141l.654-1.812a.541.541,0,0,1,.527-.416Zm-1.606,6.2a1.553,1.553,0,1,1-1.559,1.553,1.553,1.553,0,0,1,1.559-1.553Zm13.039,0a1.553,1.553,0,1,1-1.551,1.553,1.56,1.56,0,0,1,1.551-1.553Zm-13.039.6a.957.957,0,1,0,.961.957.962.962,0,0,0-.961-.957Zm13.039,0a.957.957,0,1,0,.961.957.963.963,0,0,0-.961-.957Zm-13.039.447a.51.51,0,1,1-.512.51.5.5,0,0,1,.512-.51Zm13.039,0a.51.51,0,1,1-.512.51.51.51,0,0,1,.512-.51Z" transform="translate(-14.042 -18.156)"/>
  </g>
</svg>
