<svg xmlns="http://www.w3.org/2000/svg" viewBox="0 0 82.551 78"><defs><style>.a{fill-rule:evenodd;}</style></defs><g transform="translate(-8.724 -11)"><path class="a" d="M47.688,81.787a.411.411,0,0,0-.652-.158,6.043,6.043,0,0,1-3.958,1.561,6.582,6.582,0,0,1-6.258-6.234h11.3l1.7-2.029-.409-.863-.672-.011a5.39,5.39,0,0,1-4.547-2.907H14.534V66.263l7.011-7.2V44.98A21.482,21.482,0,0,1,38.571,23.568V21.533a4.679,4.679,0,0,1,3.568-4.62,4.593,4.593,0,0,1,5.446,4.593v2.062a21.282,21.282,0,0,1,16.5,16.539.216.216,0,0,0,.344.128,5.194,5.194,0,0,1,3.068-1.02h1.849a.4.4,0,0,0,.386-.478A27.159,27.159,0,0,0,53.142,19.185a10.279,10.279,0,0,0-20.127,0,27.4,27.4,0,0,0-17.28,25.8V56.7l-6.16,6.325a3,3,0,0,0-.851,2.093v8.93a2.9,2.9,0,0,0,2.9,2.9H31.01A12.386,12.386,0,0,0,43.079,89a11.956,11.956,0,0,0,7.988-3.206l-2.232-2.232A5.114,5.114,0,0,1,47.688,81.787Z"/><path class="a" d="M89.993,62.578a44.881,44.881,0,0,1-5.134-.728l-.148-.037a1.723,1.723,0,0,1-.536-.858,7.156,7.156,0,0,1-.4-2.365l.345-.483A40.022,40.022,0,0,1,87.372,54.1a1.324,1.324,0,0,0-.02-1.839L84.1,49.011a1.328,1.328,0,0,0-1.84-.02,22.515,22.515,0,0,1-4.16,3.02l-.523.291a4.973,4.973,0,0,1-1.917-.248,9.786,9.786,0,0,1-1.622-.777l-.02-.118a45.411,45.411,0,0,1-.536-5.838,1.321,1.321,0,0,0-1.311-1.287H67.585a1.321,1.321,0,0,0-1.311,1.287,26.415,26.415,0,0,1-.811,5.781l-.047.164a1.29,1.29,0,0,1-.674.487,10.443,10.443,0,0,1-2.335.389,3.721,3.721,0,0,1-.668-.339,22.439,22.439,0,0,1-4.159-3.016,1.326,1.326,0,0,0-1.84.02l-3.247,3.247a1.328,1.328,0,0,0-.021,1.84A39.354,39.354,0,0,1,55.726,57.9l.309.432a2.8,2.8,0,0,1-.158,1.632,9.662,9.662,0,0,1-.982,1.83l-.184.053a22.441,22.441,0,0,1-5.078.808,1.324,1.324,0,0,0-1.287,1.314V68.56a1.325,1.325,0,0,0,1.287,1.314,39.625,39.625,0,0,1,5.134.529l.144.023c.144.04.389.439.543.889a8.229,8.229,0,0,1,.462,2.537l-.359.5a39.4,39.4,0,0,1-3.254,4,1.327,1.327,0,0,0,.021,1.84l3.247,3.247a1.328,1.328,0,0,0,1.84.021,22.338,22.338,0,0,1,4.16-3.02,5.37,5.37,0,0,1,.633-.332,5.833,5.833,0,0,1,1.816.195,4.4,4.4,0,0,1,1.311.831l.067.234a22.4,22.4,0,0,1,.807,5.078,1.327,1.327,0,0,0,1.314,1.287h4.592a1.324,1.324,0,0,0,1.314-1.287,40.122,40.122,0,0,1,.533-5.134l.027-.165c.046-.16.415-.4.821-.542a11.627,11.627,0,0,1,2.718-.523l.579.322a22.337,22.337,0,0,1,4.16,3.02,1.327,1.327,0,0,0,1.84-.021l3.247-3.247a1.327,1.327,0,0,0,.02-1.84,39.655,39.655,0,0,1-3.254-4l-.359-.506a3.386,3.386,0,0,1,.148-1.733,11.088,11.088,0,0,1,.784-1.656c0,.007,0,.007.107-.009a40.276,40.276,0,0,1,5.192-.533,1.325,1.325,0,0,0,1.287-1.314V63.976A1.43,1.43,0,0,0,89.993,62.578ZM69.837,75.89a9.639,9.639,0,1,1,9.638-9.638A9.639,9.639,0,0,1,69.837,75.89Z"/></g></svg>