<svg xmlns="http://www.w3.org/2000/svg" viewBox="0 0 30.159 22"><defs><style>.a{fill:#1b2345;stroke:#fff;stroke-miterlimit:10;}</style></defs><g transform="translate(0.658 0.5)"><path class="a" d="M16.256,21h-.37a3.665,3.665,0,0,1-2.519-1.433,4.028,4.028,0,0,1-.619-3.677L8.419,12.632A3.585,3.585,0,0,1,5.9,13.674h-.37a3.532,3.532,0,0,1-1.292-.4l-2.673,3.4L0,14.98l2.637-3.336a4.091,4.091,0,0,1,.085-3.831A3.678,3.678,0,0,1,5.886,5.919h.37a3.66,3.66,0,0,1,2.6,1.575,4.061,4.061,0,0,1,.632,3.091L14.033,14a3.592,3.592,0,0,1,2.215-.779h.37a3.626,3.626,0,0,1,.738.171l4.808-7.17a4.041,4.041,0,0,1-.348-4.073A3.659,3.659,0,0,1,25.118,0h.369A3.827,3.827,0,0,1,29,4.083a3.783,3.783,0,0,1-3.69,3.7c-.067,0-.125,0-.187,0h-.369a3.58,3.58,0,0,1-.732-.171L19.21,14.778a4.041,4.041,0,0,1,.348,4.073A3.657,3.657,0,0,1,16.256,21Zm-.089-5.431a1.513,1.513,0,0,0-1.477,1.48,1.532,1.532,0,0,0,1.4,1.633h.148l.076,0a1.512,1.512,0,0,0,1.475-1.48,1.531,1.531,0,0,0-1.4-1.634H16.24ZM5.829,8.266a1.458,1.458,0,0,0-1.245.713,1.633,1.633,0,0,0-.074,1.555,1.482,1.482,0,0,0,1.243.845H5.9l.076,0A1.512,1.512,0,0,0,7.452,9.9a1.532,1.532,0,0,0-1.4-1.633H5.9Zm19.2-5.918a1.512,1.512,0,0,0-1.475,1.48,1.532,1.532,0,0,0,1.4,1.634H25.1l.074,0a1.514,1.514,0,0,0,1.478-1.48,1.532,1.532,0,0,0-1.4-1.634H25.1Z"/></g></svg>