<svg xmlns="http://www.w3.org/2000/svg" viewBox="0 0 65.6 57.7"><g transform="translate(0.3 -3.7)"><path d="M54.9,19.6c-5.9,0-10.4,2.1-10.4,4.8V56.6c0,2.7,4.5,4.8,10.4,4.8s10.4-2.1,10.4-4.8V24.4C65.3,21.6,60.8,19.6,54.9,19.6Zm8.9,37c0,1.5-3.8,3.3-8.9,3.3S46,58.1,46,56.6V51c1.8,1.4,5,2.2,8.9,2.2s7.1-.9,8.9-2.2v5.6Zm0-8.1c0,1.5-3.8,3.3-8.9,3.3S46,50.1,46,48.5V43c1.8,1.4,5,2.2,8.9,2.2s7.1-.9,8.9-2.2v5.5Zm0-8c0,1.5-3.8,3.3-8.9,3.3S46,42,46,40.5V35c1.8,1.4,5,2.2,8.9,2.2s7.1-.9,8.9-2.2v5.5Zm0-8.1c0,1.5-3.8,3.3-8.9,3.3S46,34,46,32.4V26.9c1.8,1.4,5,2.2,8.9,2.2s7.1-.9,8.9-2.2v5.5Zm-8.9-4.8c-5.1,0-8.9-1.7-8.9-3.3,0-1.5,3.8-3.3,8.9-3.3s8.9,1.7,8.9,3.3S59.9,27.6,54.9,27.6Z"/><path d="M32.5,27.6c-5.9,0-10.4,2.1-10.4,4.8V56.6c0,2.7,4.5,4.8,10.4,4.8s10.4-2.1,10.4-4.8V32.4C42.9,29.7,38.4,27.6,32.5,27.6Zm8.9,29c0,1.5-3.8,3.3-8.9,3.3s-8.9-1.7-8.9-3.3V51c1.8,1.4,5,2.2,8.9,2.2s7.1-.9,8.9-2.2Zm0-8.1c0,1.5-3.8,3.3-8.9,3.3s-8.9-1.7-8.9-3.3V43c1.8,1.4,5,2.2,8.9,2.2s7.1-.9,8.9-2.2Zm0-8c0,1.5-3.8,3.3-8.9,3.3s-8.9-1.7-8.9-3.3V35c1.8,1.4,5,2.2,8.9,2.2s7.1-.9,8.9-2.2Zm-8.9-4.8c-5.1,0-8.9-1.7-8.9-3.3,0-1.5,3.8-3.3,8.9-3.3s8.9,1.7,8.9,3.3S37.6,35.7,32.5,35.7Z"/><path d="M10.1,35.7C4.2,35.7-.3,37.8-.3,40.5V56.6c0,2.7,4.5,4.8,10.4,4.8s10.4-2.1,10.4-4.8V40.5C20.5,37.7,16.1,35.7,10.1,35.7ZM19,56.6c0,1.5-3.8,3.3-8.9,3.3s-8.9-1.7-8.9-3.3V51c1.8,1.4,5,2.2,8.9,2.2s7.1-.9,8.9-2.2Zm0-8.1c0,1.5-3.8,3.3-8.9,3.3s-8.9-1.7-8.9-3.3V43c1.8,1.4,5,2.2,8.9,2.2s7.1-.9,8.9-2.2Zm-8.9-4.8C5,43.7,1.2,42,1.2,40.4c0-1.5,3.8-3.3,8.9-3.3S19,38.8,19,40.4,15.2,43.7,10.1,43.7Z"/><path d="M54.1,10.7h1.5v-7H48.5V5.2H53L42.4,15.8H24.1L9.6,30.3l1.1,1,14-14H43L54.1,6.2Z"/></g></svg>