<svg xmlns="http://www.w3.org/2000/svg" viewBox="0 0 58.663 62.9"><g transform="translate(-2.7 -0.6)"><circle cx="2.1" cy="2.1" r="2.1" transform="translate(17.3 34.3)"/><path d="M60.9,41c-.6-.6-.6-1.8-.5-3.2.1-2.1.2-4.8-2.7-6.3a4.854,4.854,0,0,0-3.7-.3c-.1,0-.2.1-.3.1l-.4.2-.2-.4A19.431,19.431,0,0,0,45,23.7c-3.3-1.7-8.7-2.8-14.3-2.8a33.542,33.542,0,0,0-9,1.1h-.2l-.2-.1A25.554,25.554,0,0,0,16,19.7a3.6,3.6,0,0,0-1.1-.2A4.245,4.245,0,0,0,11.7,21a3.764,3.764,0,0,0-.6,3.4c.3.9.6,2.1.9,3l.1.2-.2.2a17.484,17.484,0,0,0-3.7,5.7L8,34H7.7a13.553,13.553,0,0,1-2,.2,3.294,3.294,0,0,0-3,3.2v6.3A3.335,3.335,0,0,0,5.6,47l2.4.4.1.2a20,20,0,0,0,4.2,6.2l.2.2-.1.7c0,.2-.1.3-.1.4l-.6,4.5a3.635,3.635,0,0,0,.8,2.7,3.367,3.367,0,0,0,2.6,1.2h6.2a3.139,3.139,0,0,0,2.1-.7l.3-.3a3.1,3.1,0,0,0,.9-1.9l.1-.8h.4c3.3,0,11.3-.2,13.7-.3h.4l.1.8a3.4,3.4,0,0,0,3.3,3.1h6.3a3.571,3.571,0,0,0,2.7-1.2,3.243,3.243,0,0,0,.8-2.8L51.9,56c-.1-.9-.2-1.7-.3-2.6l.1-1.4.1-.1a19.318,19.318,0,0,0,3.7-14.1,5.853,5.853,0,0,1-.2-1.3,6,6,0,0,1-.2-2.3l.1-.3h.4a3.091,3.091,0,0,1,.8.2c1.1.6,1.1,1.6,1,3.5-.1,1.8-.1,3.8,1.4,5.4a1.5,1.5,0,0,0,1.1.4A2.1,2.1,0,0,0,61,43,1.424,1.424,0,0,0,60.9,41ZM49.1,50.4a2.052,2.052,0,0,0-.5,1.7l.6,4.5.5,3.9H42.5l.1-.5v-.4a1.268,1.268,0,0,0-.1-.6c-.2-1.9-1.2-2.7-3-2.5-.9.1-11.3.3-14.5.3h-.7c-.3,0-.5-.1-.7-.1H22.5l-.4,1.1a4.331,4.331,0,0,0-.1.5l-.1.5a7.385,7.385,0,0,1-.2,1.2l-.1.3h-7l.7-5v-.5a4.484,4.484,0,0,0,.1-1.1,2.127,2.127,0,0,0-.6-1.6,15.685,15.685,0,0,1-4.4-6.5,1.615,1.615,0,0,0-1.5-1.2c-.7-.1-1.3-.2-2-.3L5.8,44V37.3h.4c.8-.1,1.8-.2,2.7-.3a1.937,1.937,0,0,0,1.7-1.3,15.571,15.571,0,0,1,3.9-6,1.82,1.82,0,0,0,.5-2.1c-.3-.9-.7-2.5-1.1-3.7a.821.821,0,0,1,.1-.7.914.914,0,0,1,.7-.3h.2a25.667,25.667,0,0,1,5.3,2.3,2.509,2.509,0,0,0,1,.2c.3,0,.6-.1.8-.1a29.98,29.98,0,0,1,8.6-1.1c5.2,0,10,.9,12.9,2.4a15.915,15.915,0,0,1,8.4,9.8.349.349,0,0,0,.1.2l.2.7c.1.3.1.7.2,1A16.084,16.084,0,0,1,49.1,50.4Z"/><path d="M39,29.9a45.127,45.127,0,0,0-7-.6h-.2a54.333,54.333,0,0,0-6.7.5,2.281,2.281,0,0,0-1.2.6,1.637,1.637,0,0,0-.2,1.2,1.515,1.515,0,0,0,2.1,1.1,30.456,30.456,0,0,1,12.4.1c.2,0,.4.1.6.1a1.521,1.521,0,0,0,1.6-1.2,1.323,1.323,0,0,0-.2-1.2A1.743,1.743,0,0,0,39,29.9Z"/><path d="M32,17.4A8.451,8.451,0,0,0,40.4,9,8.4,8.4,0,0,0,23.6,9,8.451,8.451,0,0,0,32,17.4ZM32,3a5.9,5.9,0,1,1,0,11.8,5.977,5.977,0,0,1-5.9-5.9A5.911,5.911,0,0,1,32,3Z"/></g></svg>