<svg xmlns="http://www.w3.org/2000/svg" xmlns:xlink="http://www.w3.org/1999/xlink" xml:space="preserve" version="1.1" style="shape-rendering:geometricPrecision;text-rendering:geometricPrecision;image-rendering:optimizeQuality;" viewBox="0 0 8270 9758.75" x="0px" y="0px" fill-rule="evenodd" clip-rule="evenodd"><defs><style type="text/css">
   
    .fil0 {fill:black;fill-rule:nonzero}
   
  </style></defs><g><path class="fil0" d="M1317 6184c103,-103 -55,-261 -158,-158l-1025 1025c-409,409 212,1031 621,622l1025 -1025c20,-20 30,-46 32,-72l2607 -2607 2868 2867c731,-731 1048,-1663 972,-2691 -70,-963 -498,-1951 -1268,-2747l568 -568c78,-79 -41,-198 -119,-119l-568 568c-797,-770 -1785,-1198 -2747,-1268 -1027,-76 -1960,240 -2692,972 956,956 1912,1911 2867,2867l-2607 2608c-26,2 -51,13 -70,32l-1026 1025c-201,202 -507,-104 -306,-306l1026 -1025zm2800 -6063c961,70 1948,508 2736,1296 788,787 1225,1775 1295,2736 70,939 -213,1853 -862,2526l-5695 -5695c673,-649 1587,-932 2526,-863z"/></g><text x="0" y="7822" fill="#000000" font-size="5px" font-weight="bold" font-family="'Helvetica Neue', Helvetica, Arial-Unicode, Arial, Sans-serif">Created by 4u</text><text x="0" y="7827" fill="#000000" font-size="5px" font-weight="bold" font-family="'Helvetica Neue', Helvetica, Arial-Unicode, Arial, Sans-serif">from the Noun Project</text></svg>