<svg xmlns="http://www.w3.org/2000/svg" viewBox="0 0 963.372 860.678"><defs><style>.a{fill:#fdffff;}</style></defs><g transform="translate(-30.364 -81.622)"><path class="a" d="M798.8,121.8V832.1a72.284,72.284,0,0,1-.7,10.3c.5-3.5,1-7.1,1.4-10.6a73.825,73.825,0,0,1-4.6,16.7c1.3-3.2,2.7-6.4,4-9.6a73.3,73.3,0,0,1-9.2,15.8l6.3-8.1a74.99,74.99,0,0,1-12.9,12.9l8.1-6.3a75.788,75.788,0,0,1-15.8,9.2c3.2-1.3,6.4-2.7,9.6-4a75.279,75.279,0,0,1-16.7,4.6c3.5-.5,7.1-1,10.6-1.4-7.1.9-14.4.7-21.5.7H315.2c-20.1,0-40.2.1-60.3,0a66.323,66.323,0,0,1-10-.7c3.5.5,7.1,1,10.6,1.4a73.824,73.824,0,0,1-16.7-4.6c3.2,1.3,6.4,2.7,9.6,4a73.307,73.307,0,0,1-15.8-9.2l8.1,6.3a74.987,74.987,0,0,1-12.9-12.9l6.3,8.1a75.787,75.787,0,0,1-9.2-15.8c1.3,3.2,2.7,6.4,4,9.6a75.282,75.282,0,0,1-4.6-16.7c.5,3.5,1,7.1,1.4,10.6-1.1-8.7-.7-17.7-.7-26.5V151.1c0-9.4.1-18.7,0-28.1v-1.2l-40,40H758.3c26.4,0,52.9.4,79.4,0h1.1c20.9,0,41-18.4,40-40-1-21.7-17.6-40-40-40H265.5c-26.4,0-52.9-.4-79.4,0H185c-21.6,0-40,18.3-40,40V787.6c0,15-.1,29.9,0,44.9.1,17.9,4.5,33.9,12,49.9,4.6,9.9,11.7,19,19.2,26.8a102.1,102.1,0,0,0,26.9,20.2c18.1,9.2,37.2,12.9,57.3,12.9H763.9c21.1,0,41.7-4,60.2-14.8,33.7-19.5,54.4-56.4,54.7-95.2V121.7c0-20.9-18.4-41-40-40S798.8,99.3,798.8,121.8Z"/><path class="a" d="M953.7,81.8H106.3c-11.5,0-23-.1-34.4,0H70.4c-20.9,0-41,18.4-40,40,1,21.7,17.6,40,40,40H917.8c11.5,0,23,.1,34.4,0h1.5c20.9,0,41-18.4,40-40-1-21.7-17.6-40-40-40Z"/><path class="a" d="M639.2,419.8a164.485,164.485,0,0,1-1.5,22.2c.5-3.5,1-7.1,1.4-10.6a168.48,168.48,0,0,1-11.7,42.9c1.3-3.2,2.7-6.4,4-9.6a169.334,169.334,0,0,1-22,37.4l6.3-8.1a172.73,172.73,0,0,1-29.6,29.6l8.1-6.3a175.747,175.747,0,0,1-37.4,22c3.2-1.3,6.4-2.7,9.6-4A171.516,171.516,0,0,1,523.5,547c3.5-.5,7.1-1,10.6-1.4a174.416,174.416,0,0,1-44.5,0c3.5.5,7.1,1,10.6,1.4a168.48,168.48,0,0,1-42.9-11.7c3.2,1.3,6.4,2.7,9.6,4a169.334,169.334,0,0,1-37.4-22l8.1,6.3A172.729,172.729,0,0,1,408,494l6.3,8.1a175.749,175.749,0,0,1-22-37.4c1.3,3.2,2.7,6.4,4,9.6a171.516,171.516,0,0,1-11.7-42.9c.5,3.5,1,7.1,1.4,10.6a174.419,174.419,0,0,1,0-44.5c-.5,3.5-1,7.1-1.4,10.6a168.479,168.479,0,0,1,11.7-42.9c-1.3,3.2-2.7,6.4-4,9.6a169.335,169.335,0,0,1,22-37.4l-6.3,8.1a172.73,172.73,0,0,1,29.6-29.6l-8.1,6.3a175.749,175.749,0,0,1,37.4-22c-3.2,1.3-6.4,2.7-9.6,4a171.516,171.516,0,0,1,42.9-11.7c-3.5.5-7.1,1-10.6,1.4a174.419,174.419,0,0,1,44.5,0c-3.5-.5-7.1-1-10.6-1.4a168.48,168.48,0,0,1,42.9,11.7c-3.2-1.3-6.4-2.7-9.6-4a169.335,169.335,0,0,1,37.4,22l-8.1-6.3a172.728,172.728,0,0,1,29.6,29.6l-6.3-8.1a175.748,175.748,0,0,1,22,37.4c-1.3-3.2-2.7-6.4-4-9.6a171.516,171.516,0,0,1,11.7,42.9c-.5-3.5-1-7.1-1.4-10.6a168.2,168.2,0,0,1,1.5,22.3c.1,20.9,18.3,41,40,40,21.6-1,40.1-17.6,40-40-.2-41.3-12.5-83.7-36.7-117.5a225.49,225.49,0,0,0-48.4-49.6c-16.4-12.4-34.6-21.5-53.9-28.5-39.4-14.4-84.9-15.3-125.1-3.7-38.6,11.1-75.2,33.8-100.7,64.9a251.347,251.347,0,0,0-20.3,27.9c-6.1,10.2-10.9,21-15.4,32-8,19.5-11.9,40.2-13.5,61.2-3.2,41.2,7.6,84.4,28.9,119.8,20.7,34.4,52.2,64,88.9,80.6,10.9,4.9,21.9,9.5,33.4,12.7,11.6,3.2,23.4,4.9,35.3,6.3,21.3,2.6,42.9.7,63.9-3.5,80-16.1,147.7-85.3,160.2-166.3a246.294,246.294,0,0,0,3.4-36.3c.1-20.9-18.5-41-40-40C657.5,380.8,639.3,397.4,639.2,419.8Z"/><path class="a" d="M382.6,732.2c-18.5,0-37.3.9-55.8-.1,3.5.5,7.1,1,10.6,1.4a15.57,15.57,0,0,1-3.7-1c3.2,1.3,6.4,2.7,9.6,4a17.271,17.271,0,0,1-3.2-2l8.1,6.3a15.27,15.27,0,0,1-1.8-1.8l6.3,8.1a21.365,21.365,0,0,1-2-3.2c1.3,3.2,2.7,6.4,4,9.6a16.959,16.959,0,0,1-1-3.7c.5,3.5,1,7.1,1.4,10.6-1-19.7-.1-39.6-.1-59.3,0-20.9-18.4-41-40-40-21.7,1-40,17.6-40,40v54.7a61.112,61.112,0,0,0,6.5,28.5c8.8,17.3,27.7,27.4,46.7,27.8,8.7.2,17.4,0,26,0h28.2c20.9,0,41-18.4,40-40-.7-21.5-17.3-39.9-39.8-39.9Z"/><path class="a" d="M641.4,812.2c17.7,0,35.5.2,53.2,0,30.5-.4,54-23.8,54.3-54.4.1-9.7,0-19.4,0-29.1V701.2c0-20.9-18.4-41-40-40-21.7,1-40,17.6-40,40,0,19.7.9,39.6-.1,59.3.5-3.5,1-7.1,1.4-10.6a15.57,15.57,0,0,1-1,3.7c1.3-3.2,2.7-6.4,4-9.6a17.271,17.271,0,0,1-2,3.2l6.3-8.1a15.272,15.272,0,0,1-1.8,1.8l8.1-6.3a21.362,21.362,0,0,1-3.2,2c3.2-1.3,6.4-2.7,9.6-4a16.959,16.959,0,0,1-3.7,1c3.5-.5,7.1-1,10.6-1.4-18.5.9-37.3.1-55.8.1-20.9,0-41,18.4-40,40s17.6,39.9,40.1,39.9Z"/></g></svg>